<svg width="20" height="22" viewBox="0 0 20 22" fill="none" xmlns="http://www.w3.org/2000/svg">
<path d="M11.2437 8.26855C11.7937 8.26855 12.2437 7.81855 12.2437 7.26855V5.26855H14.2437C14.7937 5.26855 15.2437 4.81855 15.2437 4.26855C15.2437 3.71855 14.7937 3.26855 14.2437 3.26855H12.2437V1.26855C12.2437 0.718555 11.7937 0.268555 11.2437 0.268555C10.6937 0.268555 10.2437 0.718555 10.2437 1.26855V3.26855H8.24365C7.69365 3.26855 7.24365 3.71855 7.24365 4.26855C7.24365 4.81855 7.69365 5.26855 8.24365 5.26855H10.2437V7.26855C10.2437 7.81855 10.6937 8.26855 11.2437 8.26855ZM6.24365 17.2686C5.14365 17.2686 4.25365 18.1686 4.25365 19.2686C4.25365 20.3686 5.14365 21.2686 6.24365 21.2686C7.34365 21.2686 8.24365 20.3686 8.24365 19.2686C8.24365 18.1686 7.34365 17.2686 6.24365 17.2686ZM16.2437 17.2686C15.1437 17.2686 14.2537 18.1686 14.2537 19.2686C14.2537 20.3686 15.1437 21.2686 16.2437 21.2686C17.3437 21.2686 18.2437 20.3686 18.2437 19.2686C18.2437 18.1686 17.3437 17.2686 16.2437 17.2686ZM7.34365 12.2686H14.7937C15.5437 12.2686 16.2037 11.8586 16.5437 11.2386L19.7837 5.09855C19.9059 4.86733 19.9324 4.59738 19.8576 4.34678C19.7828 4.09618 19.6126 3.88496 19.3837 3.75855C19.2677 3.69504 19.1402 3.65525 19.0087 3.64151C18.8772 3.62776 18.7443 3.64034 18.6177 3.6785C18.4911 3.71667 18.3734 3.77965 18.2714 3.86379C18.1694 3.94793 18.0852 4.05153 18.0237 4.16855L14.7937 10.2686H7.77365L3.51365 1.26855H1.24365C0.693652 1.26855 0.243652 1.71855 0.243652 2.26855C0.243652 2.81855 0.693652 3.26855 1.24365 3.26855H2.24365L5.84365 10.8586L4.49365 13.2986C3.76365 14.6386 4.72365 16.2686 6.24365 16.2686H17.2437C17.7937 16.2686 18.2437 15.8186 18.2437 15.2686C18.2437 14.7186 17.7937 14.2686 17.2437 14.2686H6.24365L7.34365 12.2686Z" fill="black"/>
</svg>
