<svg width="14" height="21" viewBox="0 0 14 21" fill="none" xmlns="http://www.w3.org/2000/svg">
<path d="M4.06683 20.0446C3.92614 19.9852 3.80922 19.8807 3.73453 19.7475C3.65984 19.6143 3.63162 19.46 3.65433 19.309L4.90558 11.1621H1.58496C1.47968 11.1649 1.37517 11.1436 1.27947 11.0996C1.18377 11.0556 1.09946 10.9903 1.03302 10.9086C0.966588 10.8268 0.919814 10.731 0.89631 10.6283C0.872805 10.5256 0.873198 10.419 0.897458 10.3165L2.95996 1.37899C2.99625 1.22517 3.08443 1.08856 3.20964 0.992139C3.33486 0.895721 3.48948 0.845387 3.64746 0.849611H10.5225C10.6252 0.849262 10.7266 0.87193 10.8194 0.915949C10.9122 0.959969 10.994 1.02422 11.0587 1.10399C11.1243 1.18465 11.1708 1.27915 11.1946 1.38037C11.2184 1.48159 11.219 1.5869 11.1962 1.68836L10.0068 7.03711H13.2725C13.4013 7.03685 13.5276 7.07281 13.637 7.14088C13.7464 7.20896 13.8345 7.3064 13.8912 7.42211C13.9405 7.53317 13.9594 7.6553 13.9461 7.77606C13.9329 7.89683 13.8878 8.01192 13.8156 8.10961L4.87808 19.7971C4.81768 19.8867 4.73703 19.9607 4.64267 20.0133C4.5483 20.0658 4.44289 20.0954 4.33496 20.0996C4.24296 20.0979 4.15207 20.0792 4.06683 20.0446ZM8.28808 8.41211L9.66308 2.22461H4.19746L2.45121 9.78711H6.51433L5.42121 16.8546L11.8975 8.41211H8.28808Z" fill="black" fill-opacity="0.6"/>
</svg>
