<svg width="25" height="25" viewBox="0 0 25 25" fill="none" xmlns="http://www.w3.org/2000/svg">
<g clip-path="url(#clip0_0_3961)">
<path d="M11.4817 2.85608H3.48174M23.4817 20.4561V7.65608C23.4817 7.23173 23.3132 6.82477 23.0131 6.52471C22.7131 6.22465 22.3061 6.05608 21.8817 6.05608H2.68174C2.25739 6.05608 1.85043 6.22465 1.55037 6.52471C1.25031 6.82477 1.08174 7.23173 1.08174 7.65608V20.4561C1.08174 20.8804 1.25031 21.2874 1.55037 21.5874C1.85043 21.8875 2.25739 22.0561 2.68174 22.0561H21.8817C22.3061 22.0561 22.7131 21.8875 23.0131 21.5874C23.3132 21.2874 23.4817 20.8804 23.4817 20.4561ZM15.4817 17.2561C14.633 17.2561 13.8191 16.9189 13.219 16.3188C12.6189 15.7187 12.2817 14.9048 12.2817 14.0561C12.2817 13.2074 12.6189 12.3935 13.219 11.7933C13.8191 11.1932 14.633 10.8561 15.4817 10.8561C16.3304 10.8561 17.1444 11.1932 17.7445 11.7933C18.3446 12.3935 18.6817 13.2074 18.6817 14.0561C18.6817 14.9048 18.3446 15.7187 17.7445 16.3188C17.1444 16.9189 16.3304 17.2561 15.4817 17.2561Z" stroke="black" stroke-width="1.5"/>
</g>
<defs>
<clipPath id="clip0_0_3961">
<rect width="24" height="24" fill="white" transform="translate(0.281738 0.456055)"/>
</clipPath>
</defs>
</svg>
