<svg width="18" height="19" viewBox="0 0 18 19" fill="none" xmlns="http://www.w3.org/2000/svg">
<path d="M0.832275 0.616211C0.633363 0.616211 0.442598 0.695229 0.301945 0.835881C0.161293 0.976533 0.0822754 1.1673 0.0822754 1.36621C0.0822754 1.56512 0.161293 1.75589 0.301945 1.89654C0.442598 2.03719 0.633363 2.11621 0.832275 2.11621H1.20128C1.36413 2.11649 1.52247 2.16978 1.65237 2.26801C1.78226 2.36624 1.87665 2.50409 1.92128 2.66071L4.30027 10.9857C4.43483 11.4555 4.71869 11.8687 5.10893 12.1629C5.49917 12.4571 5.97458 12.6162 6.46328 12.6162H13.3168C13.7665 12.6163 14.206 12.4816 14.5785 12.2294C14.9509 11.9773 15.2393 11.6193 15.4063 11.2017L17.6173 5.67271C17.7082 5.4452 17.742 5.19889 17.7157 4.95531C17.6894 4.71172 17.6038 4.47829 17.4665 4.2754C17.3292 4.07251 17.1443 3.90635 16.9279 3.79144C16.7115 3.67653 16.4703 3.61637 16.2253 3.61621H3.75428L3.36278 2.24821C3.22856 1.77837 2.94505 1.36499 2.55509 1.07056C2.16512 0.776121 1.68991 0.616637 1.20128 0.616211H0.832275ZM6.83228 18.6162C7.12775 18.6162 7.42033 18.558 7.69331 18.4449C7.9663 18.3319 8.21433 18.1661 8.42327 17.9572C8.6322 17.7483 8.79793 17.5002 8.91101 17.2272C9.02408 16.9543 9.08228 16.6617 9.08228 16.3662C9.08228 16.0707 9.02408 15.7782 8.91101 15.5052C8.79793 15.2322 8.6322 14.9842 8.42327 14.7752C8.21433 14.5663 7.9663 14.4006 7.69331 14.2875C7.42033 14.1744 7.12775 14.1162 6.83228 14.1162C6.23554 14.1162 5.66324 14.3533 5.24128 14.7752C4.81933 15.1972 4.58228 15.7695 4.58228 16.3662C4.58228 16.9629 4.81933 17.5352 5.24128 17.9572C5.66324 18.3792 6.23554 18.6162 6.83228 18.6162ZM12.8323 18.6162C13.1277 18.6162 13.4203 18.558 13.6933 18.4449C13.9663 18.3319 14.2143 18.1661 14.4233 17.9572C14.6322 17.7483 14.7979 17.5002 14.911 17.2272C15.0241 16.9543 15.0823 16.6617 15.0823 16.3662C15.0823 16.0707 15.0241 15.7782 14.911 15.5052C14.7979 15.2322 14.6322 14.9842 14.4233 14.7752C14.2143 14.5663 13.9663 14.4006 13.6933 14.2875C13.4203 14.1744 13.1277 14.1162 12.8323 14.1162C12.2355 14.1162 11.6632 14.3533 11.2413 14.7752C10.8193 15.1972 10.5823 15.7695 10.5823 16.3662C10.5823 16.9629 10.8193 17.5352 11.2413 17.9572C11.6632 18.3792 12.2355 18.6162 12.8323 18.6162Z" fill="black" fill-opacity="1"/>
</svg>
