<svg width="19" height="18" viewBox="0 0 19 18" fill="none" xmlns="http://www.w3.org/2000/svg">
<path d="M7.0708 0H1.0708C0.805584 0 0.55123 0.105357 0.363694 0.292893C0.176158 0.48043 0.0708008 0.734784 0.0708008 1V7C0.0708008 7.26522 0.176158 7.51957 0.363694 7.70711C0.55123 7.89464 0.805584 8 1.0708 8H7.0708C7.33602 8 7.59037 7.89464 7.77791 7.70711C7.96544 7.51957 8.0708 7.26522 8.0708 7V1C8.0708 0.734784 7.96544 0.48043 7.77791 0.292893C7.59037 0.105357 7.33602 0 7.0708 0ZM17.0708 0H11.0708C10.8056 0 10.5512 0.105357 10.3637 0.292893C10.1762 0.48043 10.0708 0.734784 10.0708 1V7C10.0708 7.26522 10.1762 7.51957 10.3637 7.70711C10.5512 7.89464 10.8056 8 11.0708 8H17.0708C17.336 8 17.5904 7.89464 17.7779 7.70711C17.9654 7.51957 18.0708 7.26522 18.0708 7V1C18.0708 0.734784 17.9654 0.48043 17.7779 0.292893C17.5904 0.105357 17.336 0 17.0708 0ZM7.0708 10H1.0708C0.805584 10 0.55123 10.1054 0.363694 10.2929C0.176158 10.4804 0.0708008 10.7348 0.0708008 11V17C0.0708008 17.2652 0.176158 17.5196 0.363694 17.7071C0.55123 17.8946 0.805584 18 1.0708 18H7.0708C7.33602 18 7.59037 17.8946 7.77791 17.7071C7.96544 17.5196 8.0708 17.2652 8.0708 17V11C8.0708 10.7348 7.96544 10.4804 7.77791 10.2929C7.59037 10.1054 7.33602 10 7.0708 10ZM14.0708 10C14.8534 10 15.6188 10.2296 16.2722 10.6603C16.9257 11.091 17.4384 11.7039 17.7469 12.4232C18.0554 13.1424 18.1461 13.9363 18.0079 14.7066C17.8696 15.4769 17.5084 16.1898 16.9691 16.7568C16.4297 17.3239 15.7358 17.7202 14.9734 17.8968C14.211 18.0734 13.4135 18.0225 12.6797 17.7503C11.946 17.4782 11.3082 16.9967 10.8453 16.3657C10.3825 15.7346 10.1149 14.9816 10.0758 14.2L10.0708 14L10.0758 13.8C10.1271 12.775 10.5704 11.809 11.314 11.1017C12.0576 10.3944 13.0446 10 14.0708 10Z" fill="black" fill-opacity="1"/>
</svg>
