<svg width="16" height="25" viewBox="0 0 16 25" fill="none" xmlns="http://www.w3.org/2000/svg">
<path d="M12.3037 2.18225C12.7015 2.18225 13.0831 2.34029 13.3644 2.62159C13.6457 2.9029 13.8037 3.28443 13.8037 3.68225V21.6823C13.8037 22.0801 13.6457 22.4616 13.3644 22.7429C13.0831 23.0242 12.7015 23.1823 12.3037 23.1823H3.30371C2.90589 23.1823 2.52436 23.0242 2.24305 22.7429C1.96175 22.4616 1.80371 22.0801 1.80371 21.6823V3.68225C1.80371 3.28443 1.96175 2.9029 2.24305 2.62159C2.52436 2.34029 2.90589 2.18225 3.30371 2.18225H12.3037ZM3.30371 0.682251C2.50806 0.682251 1.745 0.998322 1.18239 1.56093C0.619781 2.12354 0.303711 2.8866 0.303711 3.68225V21.6823C0.303711 22.4779 0.619781 23.241 1.18239 23.8036C1.745 24.3662 2.50806 24.6823 3.30371 24.6823H12.3037C13.0994 24.6823 13.8624 24.3662 14.425 23.8036C14.9876 23.241 15.3037 22.4779 15.3037 21.6823V3.68225C15.3037 2.8866 14.9876 2.12354 14.425 1.56093C13.8624 0.998322 13.0994 0.682251 12.3037 0.682251L3.30371 0.682251Z" fill="black"/>
<path d="M7.80371 21.6823C8.20154 21.6823 8.58307 21.5242 8.86437 21.2429C9.14568 20.9616 9.30371 20.5801 9.30371 20.1823C9.30371 19.7844 9.14568 19.4029 8.86437 19.1216C8.58307 18.8403 8.20154 18.6823 7.80371 18.6823C7.40589 18.6823 7.02436 18.8403 6.74305 19.1216C6.46175 19.4029 6.30371 19.7844 6.30371 20.1823C6.30371 20.5801 6.46175 20.9616 6.74305 21.2429C7.02436 21.5242 7.40589 21.6823 7.80371 21.6823Z" fill="black"/>
</svg>
