<svg width="21" height="17" viewBox="0 0 21 17" fill="none" xmlns="http://www.w3.org/2000/svg">
<path d="M13.467 4.85449L14.667 6.05449L7.86699 12.8545L6.66699 11.6545L13.467 4.85449ZM2.66699 0.854492H18.667C19.777 0.854492 20.667 1.74449 20.667 2.85449V6.85449C20.1366 6.85449 19.6279 7.06521 19.2528 7.44028C18.8777 7.81535 18.667 8.32406 18.667 8.85449C18.667 9.38492 18.8777 9.89363 19.2528 10.2687C19.6279 10.6438 20.1366 10.8545 20.667 10.8545V14.8545C20.667 15.9645 19.777 16.8545 18.667 16.8545H2.66699C2.13656 16.8545 1.62785 16.6438 1.25278 16.2687C0.877706 15.8936 0.666992 15.3849 0.666992 14.8545V10.8545C1.77699 10.8545 2.66699 9.96449 2.66699 8.85449C2.66699 8.32406 2.45628 7.81535 2.08121 7.44028C1.70613 7.06521 1.19743 6.85449 0.666992 6.85449V2.85449C0.666992 2.32406 0.877706 1.81535 1.25278 1.44028C1.62785 1.06521 2.13656 0.854492 2.66699 0.854492ZM2.66699 2.85449V5.39449C3.27467 5.74489 3.77935 6.24915 4.13025 6.85654C4.48115 7.46393 4.66589 8.15303 4.66589 8.85449C4.66589 9.55596 4.48115 10.2451 4.13025 10.8524C3.77935 11.4598 3.27467 11.9641 2.66699 12.3145V14.8545H18.667V12.3145C18.0593 11.9641 17.5546 11.4598 17.2037 10.8524C16.8528 10.2451 16.6681 9.55596 16.6681 8.85449C16.6681 8.15303 16.8528 7.46393 17.2037 6.85654C17.5546 6.24915 18.0593 5.74489 18.667 5.39449V2.85449H2.66699ZM8.16699 4.85449C8.99699 4.85449 9.66699 5.52449 9.66699 6.35449C9.66699 7.18449 8.99699 7.85449 8.16699 7.85449C7.33699 7.85449 6.66699 7.18449 6.66699 6.35449C6.66699 5.52449 7.33699 4.85449 8.16699 4.85449ZM13.167 9.85449C13.997 9.85449 14.667 10.5245 14.667 11.3545C14.667 12.1845 13.997 12.8545 13.167 12.8545C12.337 12.8545 11.667 12.1845 11.667 11.3545C11.667 10.5245 12.337 9.85449 13.167 9.85449Z" fill="black"/>
</svg>
