<svg width="19" height="19" viewBox="0 0 19 19" fill="none" xmlns="http://www.w3.org/2000/svg">
<path d="M9.51689 0.381348C4.46239 0.381348 0.35022 4.49351 0.35022 9.54801V13.3458C0.35022 14.2844 1.17247 15.048 2.18355 15.048H3.10022C3.34333 15.048 3.57649 14.9514 3.7484 14.7795C3.92031 14.6076 4.01689 14.3745 4.01689 14.1313V9.41693C4.01689 9.17382 3.92031 8.94066 3.7484 8.76875C3.57649 8.59684 3.34333 8.50027 3.10022 8.50027H2.26789C2.77755 4.95276 5.83005 2.21468 9.51689 2.21468C13.2037 2.21468 16.2562 4.95276 16.7659 8.50027H15.9336C15.6904 8.50027 15.4573 8.59684 15.2854 8.76875C15.1135 8.94066 15.0169 9.17382 15.0169 9.41693V15.048C15.0169 16.0591 14.1946 16.8813 13.1836 16.8813H11.3502V15.9647H7.68355V18.7147H13.1836C15.2057 18.7147 16.8502 17.0702 16.8502 15.048C17.8613 15.048 18.6836 14.2844 18.6836 13.3458V9.54801C18.6836 4.49351 14.5714 0.381348 9.51689 0.381348Z" fill="black"/>
</svg>
