<svg width="23" height="16" viewBox="0 0 23 16" fill="none" xmlns="http://www.w3.org/2000/svg">
<path d="M22.846 7.57884C20.7276 3.44564 16.5339 0.649153 11.7319 0.649153C6.92996 0.649153 2.73504 3.44759 0.61785 7.57923C0.528491 7.75599 0.481934 7.95128 0.481934 8.14935C0.481934 8.34741 0.528491 8.5427 0.61785 8.71947C2.73621 12.8527 6.92996 15.6492 11.7319 15.6492C16.5339 15.6492 20.7288 12.8507 22.846 8.71907C22.9353 8.54231 22.9819 8.34702 22.9819 8.14896C22.9819 7.95089 22.9353 7.7556 22.846 7.57884ZM11.7319 13.7742C10.6194 13.7742 9.53186 13.4443 8.60683 12.8262C7.6818 12.2081 6.96083 11.3296 6.53509 10.3017C6.10935 9.27391 5.99795 8.14291 6.21499 7.05177C6.43204 5.96063 6.96777 4.95835 7.75444 4.17168C8.54111 3.38501 9.54339 2.84928 10.6345 2.63224C11.7257 2.41519 12.8567 2.52659 13.8845 2.95233C14.9123 3.37807 15.7908 4.09904 16.4089 5.02407C17.027 5.9491 17.3569 7.03663 17.3569 8.14915C17.3573 8.88794 17.212 9.61955 16.9295 10.3022C16.6469 10.9848 16.2326 11.605 15.7102 12.1274C15.1878 12.6498 14.5676 13.0642 13.8849 13.3467C13.2023 13.6293 12.4707 13.7745 11.7319 13.7742ZM11.7319 4.39915C11.3972 4.40383 11.0646 4.45363 10.7432 4.5472C11.0082 4.90723 11.1353 5.35028 11.1016 5.79601C11.0679 6.24173 10.8755 6.66062 10.5595 6.97669C10.2434 7.29277 9.82449 7.48511 9.37877 7.51882C8.93304 7.55254 8.48999 7.42541 8.12996 7.16048C7.92495 7.91579 7.96195 8.71637 8.23577 9.44954C8.50959 10.1827 9.00643 10.8116 9.65637 11.2476C10.3063 11.6836 11.0766 11.9048 11.8589 11.8801C12.6411 11.8554 13.3959 11.586 14.017 11.1098C14.6381 10.6337 15.0943 9.9747 15.3213 9.22571C15.5483 8.47672 15.5347 7.67539 15.2824 6.93453C15.0301 6.19367 14.5519 5.55057 13.915 5.09576C13.2781 4.64094 12.5145 4.39731 11.7319 4.39915Z" fill="#666666" fill-opacity="0.6"/>
</svg>
