<svg width="25" height="25" viewBox="0 0 25 25" fill="none" xmlns="http://www.w3.org/2000/svg">
<mask id="mask0_0_3527" style="mask-type:luminance" maskUnits="userSpaceOnUse" x="0" y="0" width="25" height="25">
<path d="M24.6589 0.478027H0.803711V24.8161H24.6589V0.478027Z" fill="white"/>
</mask>
<g mask="url(#mask0_0_3527)">
<path d="M24.6586 12.9264C24.6586 12.0992 24.5915 11.2675 24.4483 10.4537H12.9702V15.1398H19.5432C19.2704 16.6512 18.3941 17.9882 17.1108 18.8376V21.8782H21.0322C23.335 19.7588 24.6586 16.6288 24.6586 12.9264Z" fill="#4285F4"/>
<path d="M12.9702 24.816C16.2523 24.816 19.0201 23.7384 21.0366 21.8782L17.1153 18.8377C16.0242 19.58 14.6157 20.0003 12.9747 20.0003C9.79999 20.0003 7.10819 17.8584 6.14236 14.9789H2.0957V18.1133C4.16151 22.2227 8.36914 24.816 12.9702 24.816Z" fill="#34A853"/>
<path d="M6.13793 14.9789C5.62818 13.4676 5.62818 11.831 6.13793 10.3197V7.18518H2.09575C0.369776 10.6237 0.369776 14.6748 2.09575 18.1133L6.13793 14.9789Z" fill="#FBBC04"/>
<path d="M12.9702 5.29373C14.7052 5.26691 16.3819 5.91972 17.6384 7.11808L21.1127 3.64376C18.9128 1.57797 15.9929 0.442221 12.9702 0.477993C8.36912 0.477993 4.16151 3.07143 2.0957 7.18515L6.13788 10.3196C7.09923 7.43554 9.79551 5.29373 12.9702 5.29373Z" fill="#EA4335"/>
</g>
</svg>
