<svg width="21" height="20" viewBox="0 0 21 20" fill="none" xmlns="http://www.w3.org/2000/svg">
<path d="M18.6928 4.82006L12.9328 0.79006C11.3628 -0.30994 8.95282 -0.24994 7.44282 0.92006L2.43282 4.83006C1.43282 5.61006 0.642822 7.21006 0.642822 8.47006V15.3701C0.642822 17.9201 2.71282 20.0001 5.26282 20.0001H16.0428C18.5928 20.0001 20.6628 17.9301 20.6628 15.3801V8.60006C20.6628 7.25006 19.7928 5.59006 18.6928 4.82006ZM11.4028 16.0001C11.4028 16.4101 11.0628 16.7501 10.6528 16.7501C10.2428 16.7501 9.90282 16.4101 9.90282 16.0001V13.0001C9.90282 12.5901 10.2428 12.2501 10.6528 12.2501C11.0628 12.2501 11.4028 12.5901 11.4028 13.0001V16.0001Z" fill="#580713"/>
</svg>
