<svg width="18" height="20" viewBox="0 0 18 20" fill="none" xmlns="http://www.w3.org/2000/svg">
<path d="M12.6 8.96705C12.6 9.92183 12.2207 10.8375 11.5456 11.5126C10.8705 12.1878 9.95479 12.5671 9.00001 12.5671C8.04523 12.5671 7.12956 12.1878 6.45442 11.5126C5.77929 10.8375 5.40001 9.92183 5.40001 8.96705C5.40001 8.01227 5.77929 7.0966 6.45442 6.42147C7.12956 5.74634 8.04523 5.36705 9.00001 5.36705C9.95479 5.36705 10.8705 5.74634 11.5456 6.42147C12.2207 7.0966 12.6 8.01227 12.6 8.96705ZM11.4 8.96705C11.4 8.33053 11.1472 7.72008 10.6971 7.27C10.247 6.81991 9.63653 6.56705 9.00001 6.56705C8.36349 6.56705 7.75304 6.81991 7.30295 7.27C6.85287 7.72008 6.60001 8.33053 6.60001 8.96705C6.60001 9.60357 6.85287 10.214 7.30295 10.6641C7.75304 11.1142 8.36349 11.3671 9.00001 11.3671C9.63653 11.3671 10.247 11.1142 10.6971 10.6641C11.1472 10.214 11.4 9.60357 11.4 8.96705ZM14.94 14.9131C16.5155 13.3367 17.4005 11.1993 17.4005 8.97065C17.4005 6.742 16.5155 4.60456 14.94 3.02825C14.1601 2.24786 13.2342 1.62879 12.2149 1.20642C11.1957 0.784048 10.1033 0.56665 9.00001 0.56665C7.89674 0.56665 6.80429 0.784048 5.78508 1.20642C4.76587 1.62879 3.83987 2.24786 3.06001 3.02825C1.48452 4.60456 0.599487 6.742 0.599487 8.97065C0.599487 11.1993 1.48452 13.3367 3.06001 14.9131L4.88521 16.7119L7.33681 19.0939L7.49641 19.2355C8.42641 19.989 9.78841 19.9411 10.6644 19.0939L13.5864 16.2499L14.94 14.9131ZM3.90601 3.87425C4.57486 3.20511 5.36898 2.6743 6.24303 2.31214C7.11707 1.94998 8.05391 1.76358 9.00001 1.76358C9.94611 1.76358 10.8829 1.94998 11.757 2.31214C12.631 2.6743 13.4252 3.20511 14.094 3.87425C15.4077 5.18879 16.163 6.95983 16.2023 8.81783C16.2417 10.6758 15.562 12.4773 14.3052 13.8463L14.094 14.0671L12.5088 15.6319L9.83281 18.2335L9.72001 18.3295C9.51253 18.4858 9.2598 18.5704 9.00001 18.5704C8.74022 18.5704 8.48749 18.4858 8.28001 18.3295L8.16841 18.2335L4.59241 14.7475L3.90601 14.0671L3.69481 13.8475C2.43799 12.4785 1.75834 10.677 1.79769 8.81904C1.83705 6.96103 2.59235 5.18879 3.90601 3.87425Z" fill="white"/>
</svg>
