<svg width="21" height="22" viewBox="0 0 21 22" fill="none" xmlns="http://www.w3.org/2000/svg">
<path d="M19.3028 5.68901L11.0528 1.17494C10.8323 1.05315 10.5846 0.989258 10.3328 0.989258C10.0809 0.989258 9.83319 1.05315 9.61276 1.17494L1.36276 5.69088C1.12716 5.81979 0.930486 6.00959 0.793281 6.24047C0.656076 6.47134 0.583373 6.73482 0.582764 7.00338V15.9696C0.583373 16.2382 0.656076 16.5017 0.793281 16.7325C0.930486 16.9634 1.12716 17.1532 1.36276 17.2821L9.61276 21.7981C9.83319 21.9199 10.0809 21.9838 10.3328 21.9838C10.5846 21.9838 10.8323 21.9199 11.0528 21.7981L19.3028 17.2821C19.5384 17.1532 19.735 16.9634 19.8722 16.7325C20.0095 16.5017 20.0822 16.2382 20.0828 15.9696V7.00432C20.0827 6.73528 20.0102 6.47121 19.873 6.2398C19.7357 6.00839 19.5388 5.81815 19.3028 5.68901ZM10.3328 2.48744L17.8646 6.61244L15.0737 8.14057L7.54089 4.01557L10.3328 2.48744ZM10.3328 10.7374L2.80089 6.61244L5.97901 4.87244L13.5109 8.99744L10.3328 10.7374ZM2.08276 7.92494L9.58276 12.0293V20.0721L2.08276 15.9706V7.92494ZM18.5828 15.9668L11.0828 20.0721V12.0331L14.0828 10.3915V13.7374C14.0828 13.9364 14.1618 14.1271 14.3024 14.2678C14.4431 14.4084 14.6339 14.4874 14.8328 14.4874C15.0317 14.4874 15.2224 14.4084 15.3631 14.2678C15.5037 14.1271 15.5828 13.9364 15.5828 13.7374V9.57026L18.5828 7.92494V15.9659V15.9668Z" fill="black"/>
</svg>
