<svg width="19" height="19" viewBox="0 0 19 19" fill="none" xmlns="http://www.w3.org/2000/svg">
<path d="M17.577 18.324C15.4936 18.324 13.4353 17.8696 11.402 16.961C9.36862 16.0523 7.51862 14.765 5.85195 13.099C4.18529 11.4323 2.89795 9.58231 1.98995 7.54897C1.08195 5.51564 0.62762 3.45731 0.626953 1.37397C0.626953 1.07397 0.726953 0.823975 0.926953 0.623975C1.12695 0.423975 1.37695 0.323975 1.67695 0.323975H5.72695C5.96029 0.323975 6.16862 0.403308 6.35195 0.561975C6.53529 0.720641 6.64362 0.907975 6.67695 1.12397L7.32695 4.62397C7.36029 4.89064 7.35195 5.11564 7.30195 5.29897C7.25195 5.48231 7.16029 5.64064 7.02695 5.77397L4.60195 8.22397C4.93529 8.84064 5.33095 9.43631 5.78895 10.011C6.24695 10.5856 6.75129 11.14 7.30195 11.674C7.81862 12.1906 8.36029 12.67 8.92695 13.112C9.49362 13.554 10.0936 13.958 10.727 14.324L13.077 11.974C13.227 11.824 13.423 11.7113 13.665 11.636C13.907 11.5606 14.1443 11.54 14.377 11.574L17.827 12.274C18.0603 12.3406 18.252 12.4616 18.402 12.637C18.552 12.8123 18.627 13.008 18.627 13.224V17.274C18.627 17.574 18.527 17.824 18.327 18.024C18.127 18.224 17.877 18.324 17.577 18.324Z" fill="black"/>
</svg>
