<svg width="17" height="19" viewBox="0 0 17 19" fill="none" xmlns="http://www.w3.org/2000/svg">
<path d="M5.01025 2.42871H4.83838C4.93291 2.42871 5.01025 2.35137 5.01025 2.25684V2.42871H11.5415V2.25684C11.5415 2.35137 11.6188 2.42871 11.7134 2.42871H11.5415V3.97559H13.0884V2.25684C13.0884 1.49844 12.4718 0.881836 11.7134 0.881836H4.83838C4.07998 0.881836 3.46338 1.49844 3.46338 2.25684V3.97559H5.01025V2.42871ZM15.8384 3.97559H0.713379C0.333105 3.97559 0.0258789 4.28281 0.0258789 4.66309V5.35059C0.0258789 5.44512 0.103223 5.52246 0.197754 5.52246H1.49541L2.02607 16.7588C2.06045 17.4914 2.66631 18.0693 3.39893 18.0693H13.1528C13.8876 18.0693 14.4913 17.4936 14.5257 16.7588L15.0563 5.52246H16.354C16.4485 5.52246 16.5259 5.44512 16.5259 5.35059V4.66309C16.5259 4.28281 16.2187 3.97559 15.8384 3.97559ZM12.9874 16.5225H3.56436L3.04443 5.52246H13.5073L12.9874 16.5225Z" fill="black" fill-opacity="0.6"/>
</svg>
