<svg width="25" height="29" viewBox="0 0 25 29" fill="none" xmlns="http://www.w3.org/2000/svg">
<path d="M11.1073 15.5265L9.06567 13.4849C8.77401 13.1932 8.43373 13.0474 8.04484 13.0474C7.65595 13.0474 7.31567 13.1932 7.02401 13.4849C6.73234 13.7765 6.58651 14.1231 6.58651 14.5247C6.58651 14.9262 6.73234 15.2723 7.02401 15.563L10.0865 18.6619C10.3782 18.9536 10.7185 19.0994 11.1073 19.0994C11.4962 19.0994 11.8365 18.9536 12.1282 18.6619L18.3261 12.464C18.6178 12.1724 18.7636 11.8263 18.7636 11.4257C18.7636 11.0251 18.6178 10.6785 18.3261 10.3859C18.0344 10.0942 17.6878 9.94841 17.2863 9.94841C16.8848 9.94841 16.5387 10.0942 16.248 10.3859L11.1073 15.5265ZM12.6386 28.9432C12.4685 28.9432 12.3105 28.931 12.1646 28.9067C12.0188 28.8824 11.873 28.846 11.7271 28.7974C8.44588 27.7036 5.83303 25.6804 3.88859 22.7278C1.94415 19.7751 0.971924 16.5969 0.971924 13.1932V6.30257C0.971924 5.69493 1.14838 5.14806 1.5013 4.66195C1.85422 4.17584 2.3097 3.82341 2.86776 3.60466L11.6178 0.323405C11.958 0.201877 12.2983 0.141113 12.6386 0.141113C12.9789 0.141113 13.3191 0.201877 13.6594 0.323405L22.4094 3.60466C22.9685 3.82341 23.4244 4.17584 23.7773 4.66195C24.1303 5.14806 24.3062 5.69493 24.3053 6.30257V13.1932C24.3053 16.596 23.333 19.7742 21.3886 22.7278C19.4441 25.6814 16.8313 27.7046 13.55 28.7974C13.4042 28.846 13.2584 28.8824 13.1125 28.9067C12.9667 28.931 12.8087 28.9432 12.6386 28.9432Z" fill="black"/>
</svg>
