<svg width="19" height="20" viewBox="0 0 19 20" fill="none" xmlns="http://www.w3.org/2000/svg">
<path fill-rule="evenodd" clip-rule="evenodd" d="M8.86577 0.439401C9.11082 0.303335 9.38649 0.231934 9.66677 0.231934C9.94706 0.231934 10.2227 0.303335 10.4678 0.439401L17.6678 4.4394C18.1918 4.7304 18.5168 5.2824 18.5168 5.8824V13.8224C18.5168 14.4224 18.1918 14.9744 17.6678 15.2654L10.4678 19.2654C10.2227 19.4015 9.94706 19.4729 9.66677 19.4729C9.38649 19.4729 9.11082 19.4015 8.86577 19.2654L1.66577 15.2654C1.4084 15.1225 1.19394 14.9133 1.04466 14.6596C0.895371 14.4058 0.816689 14.1168 0.816773 13.8224V5.8824C0.816773 5.2824 1.14177 4.7304 1.66577 4.4394L8.86577 0.439401ZM9.73977 1.7514C9.71745 1.73897 9.69232 1.73244 9.66677 1.73244C9.64122 1.73244 9.61609 1.73897 9.59377 1.7514L2.39377 5.7514C2.37058 5.76432 2.35124 5.78316 2.33771 5.806C2.32418 5.82884 2.31696 5.85486 2.31677 5.8814V13.8224C2.31677 13.8774 2.34677 13.9274 2.39377 13.9544L9.59377 17.9544C9.61609 17.9668 9.64122 17.9734 9.66677 17.9734C9.69232 17.9734 9.71745 17.9668 9.73977 17.9544L16.9398 13.9544C16.9633 13.9413 16.9828 13.9222 16.9963 13.8989C17.0099 13.8757 17.0169 13.8493 17.0168 13.8224V5.8824C17.0168 5.85569 17.0096 5.82946 16.9961 5.80643C16.9826 5.7834 16.9631 5.7644 16.9398 5.7514L9.73977 1.7514Z" fill="black"/>
<path fill-rule="evenodd" clip-rule="evenodd" d="M4.91675 9.85254C4.91675 8.59276 5.41719 7.38458 6.30799 6.49378C7.19879 5.60298 8.40697 5.10254 9.66675 5.10254C10.9265 5.10254 12.1347 5.60298 13.0255 6.49378C13.9163 7.38458 14.4167 8.59276 14.4167 9.85254C14.4167 11.1123 13.9163 12.3205 13.0255 13.2113C12.1347 14.1021 10.9265 14.6025 9.66675 14.6025C8.40697 14.6025 7.19879 14.1021 6.30799 13.2113C5.41719 12.3205 4.91675 11.1123 4.91675 9.85254ZM9.66675 6.60254C8.80479 6.60254 7.97814 6.94495 7.36865 7.55444C6.75916 8.16394 6.41675 8.99059 6.41675 9.85254C6.41675 10.7145 6.75916 11.5411 7.36865 12.1506C7.97814 12.7601 8.80479 13.1025 9.66675 13.1025C10.5287 13.1025 11.3554 12.7601 11.9648 12.1506C12.5743 11.5411 12.9167 10.7145 12.9167 9.85254C12.9167 8.99059 12.5743 8.16394 11.9648 7.55444C11.3554 6.94495 10.5287 6.60254 9.66675 6.60254Z" fill="black"/>
</svg>
