<svg width="17" height="19" viewBox="0 0 17 19" fill="none" xmlns="http://www.w3.org/2000/svg">
<path d="M14.0938 18.6423C13.3299 18.6423 12.6806 18.3749 12.1458 17.8402C11.6111 17.3055 11.3438 16.6562 11.3438 15.8923C11.3438 15.7853 11.3514 15.6744 11.3667 15.5595C11.3819 15.4447 11.4049 15.3417 11.4354 15.2506L4.97292 11.4923C4.71319 11.7215 4.42292 11.9011 4.10208 12.0313C3.78125 12.1615 3.44514 12.2262 3.09375 12.2256C2.32986 12.2256 1.68056 11.9583 1.14583 11.4235C0.611111 10.8888 0.34375 10.2395 0.34375 9.47563C0.34375 8.71174 0.611111 8.06243 1.14583 7.52771C1.68056 6.99299 2.32986 6.72563 3.09375 6.72563C3.44514 6.72563 3.78125 6.79071 4.10208 6.92088C4.42292 7.05104 4.71319 7.2304 4.97292 7.45896L11.4354 3.70063C11.4049 3.60896 11.3819 3.50599 11.3667 3.39171C11.3514 3.27743 11.3438 3.16652 11.3438 3.05896C11.3438 2.29507 11.6111 1.64577 12.1458 1.11104C12.6806 0.576321 13.3299 0.30896 14.0938 0.30896C14.8576 0.30896 15.5069 0.576321 16.0417 1.11104C16.5764 1.64577 16.8438 2.29507 16.8438 3.05896C16.8438 3.82285 16.5764 4.47215 16.0417 5.00688C15.5069 5.5416 14.8576 5.80896 14.0938 5.80896C13.7424 5.80896 13.4062 5.74418 13.0854 5.61463C12.7646 5.48507 12.4743 5.3054 12.2146 5.07563L5.75208 8.83396C5.78264 8.92563 5.80556 9.0289 5.82083 9.14379C5.83611 9.25868 5.84375 9.36929 5.84375 9.47563C5.84375 9.58257 5.83611 9.69349 5.82083 9.80838C5.80556 9.92327 5.78264 10.0262 5.75208 10.1173L12.2146 13.8756C12.4743 13.6465 12.7646 13.4671 13.0854 13.3375C13.4062 13.208 13.7424 13.1429 14.0938 13.1423C14.8576 13.1423 15.5069 13.4097 16.0417 13.9444C16.5764 14.4791 16.8438 15.1284 16.8438 15.8923C16.8438 16.6562 16.5764 17.3055 16.0417 17.8402C15.5069 18.3749 14.8576 18.6423 14.0938 18.6423Z" fill="black" fill-opacity="0.6"/>
</svg>
